<svg width="39" height="38" viewBox="0 0 39 38" fill="none" xmlns="http://www.w3.org/2000/svg">
<path d="M37.375 30.0833C37.375 30.9232 37.0326 31.7286 36.4231 32.3225C35.8136 32.9164 34.987 33.25 34.125 33.25H4.875C4.01305 33.25 3.1864 32.9164 2.5769 32.3225C1.96741 31.7286 1.625 30.9232 1.625 30.0833V12.6667C1.625 11.8268 1.96741 11.0214 2.5769 10.4275C3.1864 9.83363 4.01305 9.5 4.875 9.5H11.375L14.625 4.75H24.375L27.625 9.5H34.125C34.987 9.5 35.8136 9.83363 36.4231 10.4275C37.0326 11.0214 37.375 11.8268 37.375 12.6667V30.0833Z" stroke="#3F3C4C" stroke-width="3" stroke-linecap="round" stroke-linejoin="round"/>
<path d="M19.5 26.9167C23.0899 26.9167 26 24.0811 26 20.5833C26 17.0855 23.0899 14.25 19.5 14.25C15.9101 14.25 13 17.0855 13 20.5833C13 24.0811 15.9101 26.9167 19.5 26.9167Z" stroke="#3F3C4C" stroke-width="3" stroke-linecap="round" stroke-linejoin="round"/>
</svg>
