<svg width="39" height="38" viewBox="0 0 39 38" fill="none" xmlns="http://www.w3.org/2000/svg">
<path d="M8.125 33.25H30.875C32.6699 33.25 34.125 31.8322 34.125 30.0833V7.91667C34.125 6.16776 32.6699 4.75 30.875 4.75H8.125C6.33007 4.75 4.875 6.16776 4.875 7.91667V30.0833C4.875 31.8322 6.33007 33.25 8.125 33.25ZM8.125 33.25L26 15.8333L34.125 23.75M16.25 13.4583C16.25 14.77 15.1587 15.8333 13.8125 15.8333C12.4663 15.8333 11.375 14.77 11.375 13.4583C11.375 12.1467 12.4663 11.0833 13.8125 11.0833C15.1587 11.0833 16.25 12.1467 16.25 13.4583Z" stroke="#625B71" stroke-width="3" stroke-linecap="round" stroke-linejoin="round"/>
</svg>
