<svg width="39" height="38" viewBox="0 0 39 38" fill="none" xmlns="http://www.w3.org/2000/svg">
<g clip-path="url(#clip0_11_157)">
<path d="M19.5 23.75C22.1924 23.75 24.375 21.6233 24.375 19C24.375 16.3766 22.1924 14.25 19.5 14.25C16.8076 14.25 14.625 16.3766 14.625 19C14.625 21.6233 16.8076 23.75 19.5 23.75Z" stroke="#3F3C4C" stroke-width="3" stroke-linecap="round" stroke-linejoin="round"/>
<path d="M31.525 23.75C31.3087 24.2276 31.2442 24.7573 31.3397 25.2709C31.4353 25.7846 31.6866 26.2585 32.0612 26.6317L32.1588 26.7267C32.4609 27.0208 32.7006 27.37 32.8642 27.7544C33.0277 28.1389 33.1119 28.5509 33.1119 28.9671C33.1119 29.3832 33.0277 29.7953 32.8642 30.1797C32.7006 30.5642 32.4609 30.9134 32.1588 31.2075C31.8569 31.5019 31.4985 31.7355 31.1039 31.8949C30.7094 32.0542 30.2865 32.1362 29.8594 32.1362C29.4323 32.1362 29.0094 32.0542 28.6148 31.8949C28.2203 31.7355 27.8618 31.5019 27.56 31.2075L27.4625 31.1125C27.0795 30.7475 26.5931 30.5026 26.066 30.4095C25.5388 30.3164 24.9951 30.3792 24.505 30.59C24.0244 30.7907 23.6145 31.124 23.3257 31.5488C23.037 31.9736 22.8821 32.4713 22.88 32.9808V33.25C22.88 34.0899 22.5376 34.8953 21.9281 35.4892C21.3186 36.083 20.492 36.4167 19.63 36.4167C18.768 36.4167 17.9414 36.083 17.3319 35.4892C16.7224 34.8953 16.38 34.0899 16.38 33.25V33.1075C16.3674 32.5834 16.1933 32.0752 15.8803 31.6488C15.5673 31.2224 15.1299 30.8976 14.625 30.7167C14.1349 30.5059 13.5912 30.443 13.064 30.5362C12.5369 30.6293 12.0505 30.8741 11.6675 31.2392L11.57 31.3342C11.2682 31.6286 10.9097 31.8622 10.5152 32.0215C10.1206 32.1809 9.69773 32.2629 9.27062 32.2629C8.84352 32.2629 8.42061 32.1809 8.02607 32.0215C7.63153 31.8622 7.27309 31.6286 6.97125 31.3342C6.66908 31.0401 6.42936 30.6908 6.26581 30.3064C6.10225 29.922 6.01807 29.5099 6.01807 29.0937C6.01807 28.6776 6.10225 28.2655 6.26581 27.8811C6.42936 27.4967 6.66908 27.1474 6.97125 26.8533L7.06875 26.7583C7.44337 26.3852 7.69468 25.9112 7.79026 25.3976C7.88584 24.884 7.82131 24.3542 7.605 23.8767C7.39901 23.4084 7.05698 23.009 6.62101 22.7277C6.18503 22.4463 5.67415 22.2954 5.15125 22.2933H4.875C4.01305 22.2933 3.1864 21.9597 2.5769 21.3658C1.96741 20.772 1.625 19.9665 1.625 19.1267C1.625 18.2868 1.96741 17.4814 2.5769 16.8875C3.1864 16.2936 4.01305 15.96 4.875 15.96H5.02125C5.55912 15.9477 6.08076 15.7781 6.51836 15.4731C6.95596 15.1682 7.28929 14.742 7.475 14.25C7.69131 13.7724 7.75584 13.2427 7.66026 12.7291C7.56468 12.2154 7.31337 11.7415 6.93875 11.3683L6.84125 11.2733C6.53908 10.9792 6.29936 10.63 6.13581 10.2456C5.97225 9.86113 5.88807 9.44906 5.88807 9.03291C5.88807 8.61676 5.97225 8.2047 6.13581 7.82027C6.29936 7.43584 6.53908 7.08659 6.84125 6.7925C7.14309 6.49807 7.50153 6.2645 7.89607 6.10514C8.29061 5.94578 8.71352 5.86375 9.14062 5.86375C9.56773 5.86375 9.99064 5.94578 10.3852 6.10514C10.7797 6.2645 11.1382 6.49807 11.44 6.7925L11.5375 6.8875C11.9205 7.25251 12.4069 7.49737 12.934 7.5905C13.4612 7.68363 14.0049 7.62076 14.495 7.41H14.625C15.1056 7.20929 15.5155 6.87602 15.8043 6.45123C16.093 6.02644 16.2479 5.52866 16.25 5.01916V4.75C16.25 3.91014 16.5924 3.10469 17.2019 2.51082C17.8114 1.91696 18.638 1.58333 19.5 1.58333C20.362 1.58333 21.1886 1.91696 21.7981 2.51082C22.4076 3.10469 22.75 3.91014 22.75 4.75V4.8925C22.7521 5.40199 22.907 5.89977 23.1957 6.32457C23.4845 6.74936 23.8944 7.08262 24.375 7.28333C24.8651 7.49409 25.4088 7.55697 25.936 7.46384C26.4631 7.37071 26.9495 7.12585 27.3325 6.76083L27.43 6.66583C27.7318 6.3714 28.0903 6.13783 28.4848 5.97847C28.8794 5.81911 29.3023 5.73709 29.7294 5.73709C30.1565 5.73709 30.5794 5.81911 30.9739 5.97847C31.3685 6.13783 31.7269 6.3714 32.0287 6.66583C32.3309 6.95993 32.5706 7.30917 32.7342 7.6936C32.8977 8.07803 32.9819 8.4901 32.9819 8.90625C32.9819 9.32239 32.8977 9.73446 32.7342 10.1189C32.5706 10.5033 32.3309 10.8526 32.0287 11.1467L31.9312 11.2417C31.5566 11.6148 31.3053 12.0888 31.2097 12.6024C31.1142 13.116 31.1787 13.6458 31.395 14.1233V14.25C31.601 14.7183 31.943 15.1177 32.379 15.399C32.815 15.6803 33.3258 15.8313 33.8487 15.8333H34.125C34.987 15.8333 35.8136 16.167 36.4231 16.7608C37.0326 17.3547 37.375 18.1601 37.375 19C37.375 19.8398 37.0326 20.6453 36.4231 21.2392C35.8136 21.833 34.987 22.1667 34.125 22.1667H33.9787C33.4558 22.1687 32.945 22.3197 32.509 22.601C32.073 22.8823 31.731 23.2817 31.525 23.75Z" stroke="#3F3C4C" stroke-width="3" stroke-linecap="round" stroke-linejoin="round"/>
</g>
<defs>
<clipPath id="clip0_11_157">
<rect width="39" height="38" fill="white"/>
</clipPath>
</defs>
</svg>
